<?xml version="1.0" encoding="UTF-8" standalone="no"?>
<!-- Created with Inkscape (http://www.inkscape.org/) -->

<svg
   xmlns:dc="http://purl.org/dc/elements/1.1/"
   xmlns:cc="http://creativecommons.org/ns#"
   xmlns:rdf="http://www.w3.org/1999/02/22-rdf-syntax-ns#"
   xmlns:svg="http://www.w3.org/2000/svg"
   xmlns="http://www.w3.org/2000/svg"
   xmlns:sodipodi="http://sodipodi.sourceforge.net/DTD/sodipodi-0.dtd"
   xmlns:inkscape="http://www.inkscape.org/namespaces/inkscape"
   width="111.27328"
   height="79.760002"
   viewBox="0 0 111.27328 79.760003"
   id="svg3352"
   version="1.1"
   inkscape:version="0.91 r13725"
   sodipodi:docname="icon.svg">
  <defs
     id="defs3354" />
  <sodipodi:namedview
     id="base"
     pagecolor="#ffffff"
     bordercolor="#666666"
     borderopacity="1.0"
     inkscape:pageopacity="0.0"
     inkscape:pageshadow="2"
     inkscape:zoom="1.4142136"
     inkscape:cx="26.658785"
     inkscape:cy="-33.089823"
     inkscape:document-units="px"
     inkscape:current-layer="flowRoot3360"
     showgrid="false"
     units="px"
     fit-margin-top="0"
     fit-margin-left="0"
     fit-margin-right="0"
     fit-margin-bottom="0"
     inkscape:window-width="1918"
     inkscape:window-height="1056"
     inkscape:window-x="0"
     inkscape:window-y="22"
     inkscape:window-maximized="1" />
  <metadata
     id="metadata3357">
    <rdf:RDF>
      <cc:Work
         rdf:about="">
        <dc:format>image/svg+xml</dc:format>
        <dc:type
           rdf:resource="http://purl.org/dc/dcmitype/StillImage" />
        <dc:title></dc:title>
      </cc:Work>
    </rdf:RDF>
  </metadata>
  <g
     inkscape:label="Layer 1"
     inkscape:groupmode="layer"
     id="layer1"
     transform="translate(-426.04,-80.12084)">
    <g
       transform="translate(181,-170.00002)"
       style="font-style:normal;font-variant:normal;font-weight:normal;font-stretch:normal;font-size:40px;line-height:125%;font-family:'DejaVu Serif';-inkscape-font-specification:'DejaVu Serif';text-align:start;letter-spacing:0px;word-spacing:0px;writing-mode:lr-tb;text-anchor:start;fill:#000000;fill-opacity:1;stroke:none;stroke-width:1px;stroke-linecap:butt;stroke-linejoin:miter;stroke-opacity:1"
       id="flowRoot3360">
      <path
         d="m 262.86,253.13086 q 8.91,0 13.32,6.39 4.41,6.3 4.41,18 0,11.34 -3.33,18.63 -3.33,7.29 -9.72,11.79 -6.3,4.41 -16.38,7.56 l -1.08,-3.24 q 12.6,-3.96 19.08,-10.71 6.48,-6.84 7.2,-18.99 -2.79,4.23 -6.66,6.57 -3.87,2.25 -8.55,2.25 -4.59,0 -8.28,-2.25 -3.69,-2.34 -5.76,-6.57 -2.07,-4.23 -2.07,-9.9 0,-5.94 2.25,-10.35 2.34,-4.41 6.39,-6.75 4.05,-2.43 9.18,-2.43 z m -1.08,34.65 q 4.5,0 8.01,-2.34 3.51,-2.43 6.57,-7.11 0,-10.98 -3.24,-16.29 -3.15,-5.4 -10.17,-5.4 -6.3,0 -9.99,4.23 -3.6,4.23 -3.6,11.88 0,7.11 3.33,11.07 3.42,3.96 9.09,3.96 z"
         style="font-style:normal;font-variant:normal;font-weight:300;font-stretch:normal;font-size:90px;font-family:'Fira Sans';-inkscape-font-specification:'Fira Sans Light';letter-spacing:0px"
         id="path3598"
         inkscape:connector-curvature="0" />
      <path
         d="m 294.56625,269.13086 q 7.29,0 11.61,4.41 4.32,4.32 4.32,11.07 0,6.03 -2.43,11.25 -2.43,5.13 -7.65,11.34 -5.13,6.12 -17.1,18.9 l 28.8,0 -0.63,3.78 -33.12,0 0,-3.6 q 12.51,-13.41 17.91,-19.89 5.49,-6.57 7.65,-11.25 2.25,-4.77 2.25,-10.26 0,-5.58 -3.24,-8.82 -3.15,-3.33 -8.55,-3.33 -4.32,0 -7.65,1.8 -3.33,1.71 -6.12,5.13 l -2.97,-2.16 q 3.51,-4.32 7.56,-6.3 4.05,-2.07 9.36,-2.07 z"
         style="font-style:normal;font-variant:normal;font-weight:300;font-stretch:normal;font-size:90px;font-family:'Fira Sans';-inkscape-font-specification:'Fira Sans Light';letter-spacing:0px"
         id="path3600"
         inkscape:connector-curvature="0" />
      <path
         d="m 310.37531,253.72086 0,21.42 q 4.68,-2.97 10.44,-2.97 7.74,0 12.24,4.95 4.5,4.86 4.5,13.5 0,5.85 -2.34,10.53 -2.25,4.59 -6.48,7.2 -4.23,2.52 -9.9,2.52 -5.22,0 -9.27,-1.8 -3.96,-1.8 -7.38,-5.31 l 2.79,-2.52 q 2.88,3.06 6.12,4.5 3.33,1.44 7.83,1.44 6.57,0 10.44,-4.5 3.87,-4.5 3.87,-12.15 0,-7.38 -3.6,-11.07 -3.51,-3.78 -9.54,-3.78 -3.15,0 -5.49,0.72 -2.25,0.72 -4.95,2.34 l -3.33,0 0,-28.62 29.34,0 -0.72,3.6 -24.57,0 z"
         style="font-style:normal;font-variant:normal;font-weight:300;font-stretch:normal;font-size:90px;font-family:'Fira Sans';-inkscape-font-specification:'Fira Sans Light';letter-spacing:0px"
         id="path3602"
         inkscape:connector-curvature="0" />
      <path
         d="m 351.63328,270.00086 q 3.06,0 4.68,0.54 l -0.81,3.87 q -1.71,-0.54 -4.14,-0.54 -4.95,0 -8.01,3.6 -2.97,3.51 -4.95,11.07 l 0,29.34 -4.14,0 0,-46.98 3.6,0 0.27,10.89 q 1.89,-6.03 5.13,-8.91 3.33,-2.88 8.37,-2.88 z"
         style="font-style:normal;font-variant:normal;font-weight:300;font-stretch:normal;font-size:90px;font-family:'Fira Sans';-inkscape-font-specification:'Fira Sans Light';letter-spacing:0px"
         id="path3604"
         inkscape:connector-curvature="0" />
    </g>
  </g>
</svg>
