<?xml version="1.0" encoding="UTF-8" standalone="no"?>
<svg
   xmlns:dc="http://purl.org/dc/elements/1.1/"
   xmlns:cc="http://creativecommons.org/ns#"
   xmlns:rdf="http://www.w3.org/1999/02/22-rdf-syntax-ns#"
   xmlns:svg="http://www.w3.org/2000/svg"
   xmlns="http://www.w3.org/2000/svg"
   version="1.1"
   id="svg3352"
   viewBox="0 0 388.33188 62.37"
   height="62.369999"
   width="388.33188">
  <defs
     id="defs3354" />
  <metadata
     id="metadata3357">
    <rdf:RDF>
      <cc:Work
         rdf:about="">
        <dc:format>image/svg+xml</dc:format>
        <dc:type
           rdf:resource="http://purl.org/dc/dcmitype/StillImage" />
        <dc:title></dc:title>
      </cc:Work>
    </rdf:RDF>
  </metadata>
  <g
     transform="translate(-248.04,-350.13084)"
     id="layer1">
    <g
       id="flowRoot3360"
       style="font-style:normal;font-variant:normal;font-weight:normal;font-stretch:normal;font-size:40px;line-height:125%;font-family:'DejaVu Serif';-inkscape-font-specification:'DejaVu Serif';text-align:start;letter-spacing:0px;word-spacing:0px;writing-mode:lr-tb;text-anchor:start;fill:#000000;fill-opacity:1;stroke:none;stroke-width:1px;stroke-linecap:butt;stroke-linejoin:miter;stroke-opacity:1"
       transform="translate(3,96.999978)" />
    <g
       id="flowRoot3368"
       style="font-style:normal;font-variant:normal;font-weight:normal;font-stretch:normal;font-size:40px;line-height:125%;font-family:'DejaVu Serif';-inkscape-font-specification:'DejaVu Serif';text-align:start;letter-spacing:0px;word-spacing:0px;writing-mode:lr-tb;text-anchor:start;fill:#000000;fill-opacity:1;stroke:none;stroke-width:1px;stroke-linecap:butt;stroke-linejoin:miter;stroke-opacity:1"
       transform="translate(206,-54.00002)" />
    <g
       id="text3378"
       style="font-style:normal;font-variant:normal;font-weight:normal;font-stretch:normal;font-size:40px;line-height:125%;font-family:'DejaVu Serif';-inkscape-font-specification:'DejaVu Serif';text-align:start;letter-spacing:0px;word-spacing:0px;writing-mode:lr-tb;text-anchor:start;fill:#000000;fill-opacity:1;stroke:none;stroke-width:1px;stroke-linecap:butt;stroke-linejoin:miter;stroke-opacity:1">
      <path
         d="m 423.73,382.15218 q 1.62,0 2.61,1.08 1.08,0.99 1.08,2.52 0,1.53 -1.08,2.61 -0.99,0.99 -2.61,0.99 -1.53,0 -2.61,-0.99 -0.99,-1.08 -0.99,-2.61 0,-1.53 0.99,-2.52 1.08,-1.08 2.61,-1.08 z m 210.56187,-5.57087 q 1.36001,0 2.08,0.24 l -0.36,1.72 q -0.76,-0.24 -1.84,-0.24 -2.2,0 -3.56,1.6 -1.32,1.56 -2.2,4.92 l 0,13.04 -1.84,0 0,-20.88 1.6,0 0.12,4.84 q 0.84,-2.68 2.28,-3.96 1.48,-1.28 3.72,-1.28 z m -14.60812,10 q 0,0.84 -0.08,1.64 l -14.16,0 q 0.2,4.28 2.04,6.36 1.84,2.08 4.8,2.08 1.68,0 2.96,-0.48 1.28,-0.52 2.72,-1.64 l 0.92,1.2 q -1.52,1.28 -3.12,1.92 -1.6,0.64 -3.56,0.64 -4.04,0 -6.36,-2.84 -2.32,-2.84 -2.32,-7.88 0,-3.32 1,-5.8 1,-2.52 2.84,-3.84 1.88,-1.36 4.36,-1.36 3.88,0 5.92,2.68 2.04,2.68 2.04,7.32 z m -1.8,-0.6 q 0,-3.64 -1.52,-5.72 -1.52,-2.12 -4.56,-2.12 -2.72,0 -4.48,2.16 -1.72,2.12 -1.88,6.44 l 12.44,0 0,-0.76 z m -26.925,11.88 -7.56,-20.88 2.04,0 6.68,19.28 6.4,-19.28 2,0 -7.24,20.88 -2.32,0 z m -20.38188,-29.64 q 3.04,0 5.92,1.48 l -0.71999,1.4 q -2.64001,-1.28 -5.12,-1.28 -2,0 -3,0.84 -0.96001,0.84 -0.96001,2.92 l 0,3.4 11.64001,0 0,20.88 -1.84001,0 0,-19.32 -9.8,0 0,19.32 -1.84,0 0,-19.32 -3.48,0 0,-1.56 3.48,0 0,-3.6 q 0,-2.52 1.48001,-3.84 1.47999,-1.32 4.23999,-1.32 z m -21.57624,8.36 q 4.07999,0 6.36,2.84 2.27999,2.8 2.27999,7.92 0,5.12 -2.32,8.04 -2.31999,2.92 -6.36,2.92 -4.04,0 -6.36,-2.88 -2.28,-2.92 -2.28,-7.96 0,-5.08 2.32,-7.96 2.36001,-2.92 6.36001,-2.92 z m 0,1.6 q -3.16001,0 -4.96001,2.4 -1.79999,2.36 -1.79999,6.88 0,4.44 1.76,6.84 1.75999,2.4 4.95999,2.4 3.16001,0 4.96,-2.4 1.8,-2.4 1.8,-6.96 0,-4.48 -1.76,-6.8 -1.76,-2.36 -4.95999,-2.36 z m -10.80876,18.84 q -2,1.28 -4.32,1.28 -2.27999,0 -3.59999,-1.36 -1.28001,-1.36 -1.28001,-4 l 0,-14.4 -3.48,0 0,-1.56 3.48,0 0,-5.08 1.84001,-0.2 0,5.28 5.51999,0 -0.24,1.56 -5.27999,0 0,14.28 q 0,3.84 3.23999,3.84 1.68,0 3.36,-0.96 l 0.76,1.32 z m -16.00812,-10.44 q 0,0.84 -0.08,1.64 l -14.16,0 q 0.2,4.28 2.04,6.36 1.84,2.08 4.8,2.08 1.68,0 2.96,-0.48 1.28,-0.52 2.72,-1.64 l 0.92,1.2 q -1.52,1.28 -3.12,1.92 -1.6,0.64 -3.56,0.64 -4.04,0 -6.36,-2.84 -2.32,-2.84 -2.32,-7.88 0,-3.32 1,-5.8 1,-2.52 2.84,-3.84 1.88,-1.36 4.36,-1.36 3.88,0 5.92,2.68 2.04,2.68 2.04,7.32 z m -1.8,-0.6 q 0,-3.64 -1.52,-5.72 -1.52,-2.12 -4.56,-2.12 -2.72,0 -4.48,2.16 -1.72,2.12 -1.88,6.44 l 12.44,0 0,-0.76 z m -26.99938,-9.4 q 2.84,0 4.28,1.68 1.44,1.64 1.44,4.72 l 0,14.88 -1.84,0 0,-14.64 q 0,-2.64 -1.04,-3.88 -1.04,-1.24 -3.12,-1.24 -2.12,0 -3.75999,1.16 -1.64,1.16 -3.12001,3.36 l 0,15.24 -1.84,0 0,-20.88 1.6,0 0.16001,3.72 q 2.95999,-4.12 7.23999,-4.12 z m -19.625,21.28 0,-20.88 1.84,0 0,20.88 -1.84,0 z m 0.92,-29.76 q 0.64,0 1.04001,0.4 0.39999,0.4 0.39999,1 0,0.6 -0.39999,1 -0.40001,0.4 -1.04001,0.4 -0.64,0 -1.04,-0.4 -0.4,-0.4 -0.4,-1 0,-0.6 0.4,-1 0.4,-0.4 1.04,-0.4 z m -15.27937,8.48 q 2.84,0 4.28,1.68 1.44,1.64 1.44,4.72 l 0,14.88 -1.84,0 0,-14.64 q 0,-2.64 -1.04,-3.88 -1.04,-1.24 -3.12,-1.24 -2.12,0 -3.76,1.16 -1.64,1.16 -3.12,3.36 l 0,15.24 -1.84,0 0,-20.88 1.6,0 0.16,3.72 q 2.96,-4.12 7.24,-4.12 z m -56.76672,-13.58047 q 3.06,0 4.68,0.54 l -0.81,3.87 q -1.71,-0.54 -4.14,-0.54 -4.95,0 -8.01,3.6 -2.97,3.51 -4.95,11.07 l 0,29.34 -4.14,0 0,-46.98 3.6,0 0.27,10.89 q 1.89,-6.03 5.13,-8.91 3.33,-2.88 8.37,-2.88 z m -59.25797,-8.28 0,21.42 q 4.68,-2.97 10.44,-2.97 7.74,0 12.24,4.95 4.5,4.86 4.5,13.5 0,5.85 -2.34,10.53 -2.25,4.59 -6.48,7.2 -4.23,2.52 -9.9,2.52 -5.22,0 -9.27,-1.8 -3.96,-1.8 -7.38,-5.31 l 2.79,-2.52 q 2.88,3.06 6.12,4.5 3.33,1.44 7.83,1.44 6.57,0 10.44,-4.5 3.87,-4.5 3.87,-12.15 0,-7.38 -3.6,-11.07 -3.51,-3.78 -9.54,-3.78 -3.15,0 -5.49,0.72 -2.25,0.72 -4.95,2.34 l -3.33,0 0,-28.62 29.34,0 -0.72,3.6 -24.57,0 z m -33.80906,-4.59 q 7.29,0 11.61,4.41 4.32,4.32 4.32,11.07 0,6.03 -2.43,11.25 -2.43,5.13 -7.65,11.34 -5.13,6.12 -17.1,18.9 l 28.8,0 -0.63,3.78 -33.12,0 0,-3.6 q 12.51,-13.41 17.91,-19.89 5.49,-6.57 7.65,-11.25 2.25,-4.77 2.25,-10.26 0,-5.58 -3.24,-8.82 -3.15,-3.33 -8.55,-3.33 -4.32,0 -7.65,1.8 -3.33,1.71 -6.12,5.13 l -2.97,-2.16 q 3.51,-4.32 7.56,-6.3 4.05,-2.07 9.36,-2.07 z m -43.70625,0 q 8.91,0 13.32,6.39 4.41,6.3 4.41,18 0,11.34 -3.33,18.63 -3.33,7.29 -9.72,11.79 -6.3,4.41 -16.38,7.56 l -1.08,-3.24 q 12.6,-3.96 19.08,-10.71 6.48,-6.84 7.2,-18.99 -2.79,4.23 -6.66,6.57 -3.87,2.25 -8.55,2.25 -4.59,0 -8.28,-2.25 -3.69,-2.34 -5.76,-6.57 -2.07,-4.23 -2.07,-9.9 0,-5.94 2.25,-10.35 2.34,-4.41 6.39,-6.75 4.05,-2.43 9.18,-2.43 z m -1.08,34.65 q 4.5,0 8.01,-2.34 3.51,-2.43 6.57,-7.11 0,-10.98 -3.24,-16.29 -3.15,-5.4 -10.17,-5.4 -6.3,0 -9.99,4.23 -3.6,4.23 -3.6,11.88 0,7.11 3.33,11.07 3.42,3.96 9.09,3.96 z"
         style="font-style:normal;font-variant:normal;font-weight:300;font-stretch:normal;font-size:90px;font-family:'Fira Sans';-inkscape-font-specification:'Fira Sans Light'"
         id="path3559" />
    </g>
  </g>
</svg>
